<svg width="13" height="9" viewBox="0 0 13 9" fill="none" xmlns="http://www.w3.org/2000/svg">
<path opacity="0.54" d="M11.7 0H0.9C0.661305 0 0.432387 0.0948211 0.263604 0.263604C0.0948211 0.432387 0 0.661305 0 0.9V8.1C0 8.33869 0.0948211 8.56761 0.263604 8.7364C0.432387 8.90518 0.661305 9 0.9 9H11.7C11.9387 9 12.1676 8.90518 12.3364 8.7364C12.5052 8.56761 12.6 8.33869 12.6 8.1V0.9C12.6 0.661305 12.5052 0.432387 12.3364 0.263604C12.1676 0.0948211 11.9387 0 11.7 0V0ZM11.6055 0.9C11.646 0.9 11.673 0.927 11.691 0.981C11.7028 1.012 11.7049 1.04589 11.6968 1.07808C11.6888 1.11027 11.671 1.13922 11.646 1.161L6.3 5.175L0.954 1.161C0.928967 1.13922 0.911227 1.11027 0.903179 1.07808C0.895131 1.04589 0.897163 1.012 0.909 0.981C0.909 0.927 0.954 0.9 0.9945 0.9H11.6055ZM0.9 8.1V2.25L5.76 5.895C5.91579 6.01184 6.10527 6.075 6.3 6.075C6.49473 6.075 6.68421 6.01184 6.84 5.895L11.7 2.25V8.1H0.9Z" fill="black"/>
</svg>
