<svg width="17" height="22" viewBox="0 0 17 22" fill="none" xmlns="http://www.w3.org/2000/svg">
<path d="M0 11C0 11.3781 0.315208 11.6875 0.708334 11.6875H8.91437L7.28875 13.2653C7.0125 13.5334 7.0125 13.97 7.28875 14.2381C7.43042 14.3687 7.61104 14.4375 7.79167 14.4375C7.97229 14.4375 8.15292 14.3688 8.29104 14.2347L11.1244 11.4847C11.4006 11.2166 11.4006 10.78 11.1244 10.5119L8.29104 7.76188C8.01479 7.49375 7.565 7.49375 7.28875 7.76188C7.0125 8.03 7.0125 8.46656 7.28875 8.73469L8.91437 10.3125H0.708334C0.315208 10.3125 0 10.6219 0 11ZM2.83333 13.75C3.22646 13.75 3.54167 14.0559 3.54167 14.4375V19.25C3.54167 20.0097 4.17563 20.625 4.95833 20.625H14.1667C14.9494 20.625 15.5833 20.0097 15.5833 19.25V2.75C15.5833 1.99031 14.9494 1.375 14.1667 1.375H4.95833C4.17563 1.375 3.54167 1.99031 3.54167 2.75V7.39406C3.54167 7.77219 3.22646 8.08156 2.83333 8.08156C2.44021 8.08156 2.125 7.77219 2.125 7.39406V2.75C2.125 1.23406 3.39646 0 4.95833 0H14.1667C15.7285 0 17 1.23406 17 2.75V19.25C17 20.7659 15.7285 22 14.1667 22H4.95833C3.39646 22 2.125 20.7659 2.125 19.25V14.4375C2.125 14.0559 2.44021 13.75 2.83333 13.75Z" fill="#E84F5A"/>
</svg>
